<svg width="13" height="12" viewBox="0 0 13 12" fill="none" xmlns="http://www.w3.org/2000/svg">
<g clip-path="url(#clip0_8_37)">
<path d="M7.13442 1.83439C7.28445 1.68441 7.48789 1.60016 7.70002 1.60016C7.91216 1.60016 8.1156 1.68441 8.26562 1.83439L11.8656 5.43439C12.0156 5.58441 12.0999 5.78786 12.0999 5.99999C12.0999 6.21212 12.0156 6.41557 11.8656 6.56559L8.26562 10.1656C8.11474 10.3113 7.91266 10.3919 7.7029 10.3901C7.49315 10.3883 7.2925 10.3042 7.14417 10.1558C6.99584 10.0075 6.91171 9.80687 6.90989 9.59711C6.90806 9.38735 6.9887 9.18527 7.13442 9.03439L9.30002 6.79999H1.70002C1.48785 6.79999 1.28437 6.7157 1.13434 6.56567C0.98431 6.41564 0.900024 6.21216 0.900024 5.99999C0.900024 5.78781 0.98431 5.58433 1.13434 5.4343C1.28437 5.28427 1.48785 5.19999 1.70002 5.19999H9.30002L7.13442 2.96559C6.98445 2.81557 6.9002 2.61212 6.9002 2.39999C6.9002 2.18786 6.98445 1.98441 7.13442 1.83439Z" fill="#71717A"/>
</g>
<defs>
<clipPath id="clip0_8_37">
<rect width="12" height="12" fill="white" transform="translate(0.5)"/>
</clipPath>
</defs>
</svg>
