<svg width="21" height="20" viewBox="0 0 21 20" fill="none" xmlns="http://www.w3.org/2000/svg">
<path d="M5.16667 16.6L6.43667 15.5841L6.445 15.5775C6.71 15.365 6.84417 15.2583 6.99333 15.1825C7.12722 15.1141 7.26833 15.0647 7.41667 15.0341C7.5825 15 7.755 15 8.10167 15H15.3358C16.2675 15 16.7342 15 17.09 14.8183C17.4036 14.6585 17.6585 14.4036 17.8183 14.09C18 13.7333 18 13.2666 18 12.3366V5.99748C18 5.06581 18 4.59915 17.8183 4.24331C17.6583 3.9296 17.4031 3.67462 17.0892 3.51498C16.7333 3.33331 16.2667 3.33331 15.3333 3.33331H5.66667C4.73333 3.33331 4.26667 3.33331 3.91 3.51498C3.59641 3.67477 3.34145 3.92972 3.18167 4.24331C3 4.59998 3 5.06665 3 5.99998V15.5591C3 16.4475 3 16.8916 3.18167 17.1191C3.25978 17.2172 3.35903 17.2964 3.47201 17.3508C3.58498 17.4052 3.70878 17.4334 3.83417 17.4333C4.12583 17.4333 4.4725 17.155 5.16667 16.6Z" stroke="#71717A" stroke-width="1.67" stroke-linecap="round" stroke-linejoin="round"/>
</svg>
