<svg width="19" height="18" viewBox="0 0 19 18" fill="none" xmlns="http://www.w3.org/2000/svg">
<path d="M4.10291 5.69952C4.25016 4.37098 4.88222 3.14341 5.8781 2.25182C6.87397 1.36023 8.16369 0.867249 9.50037 0.867249C10.837 0.867249 12.1268 1.36023 13.1226 2.25182C14.1185 3.14341 14.7506 4.37098 14.8978 5.69952L15.1428 7.90244L15.1486 7.95786C15.2742 9.05059 15.63 10.1043 16.1928 11.0493L16.2219 11.098L16.7829 12.0341C17.2932 12.8838 17.5479 13.3087 17.4925 13.6577C17.4559 13.8893 17.3368 14.0999 17.1571 14.2507C16.8859 14.4782 16.3901 14.4782 15.3995 14.4782H3.60127C2.60966 14.4782 2.11386 14.4782 1.8436 14.2517C1.66336 14.1008 1.54387 13.8898 1.50723 13.6577C1.45279 13.3087 1.70749 12.8838 2.21691 12.0341L2.77979 11.097L2.80896 11.0484C3.37121 10.1035 3.72674 9.05018 3.85209 7.95786L3.85792 7.90244L4.10291 5.69952Z" stroke="#71717A" stroke-width="1.66667"/>
<path d="M6.68268 14.4781C6.84892 15.2014 7.21542 15.8411 7.72484 16.2961C8.23425 16.753 8.85838 16.9999 9.50001 16.9999C10.1416 16.9999 10.7658 16.753 11.2752 16.2971C11.7846 15.8402 12.1501 15.2014 12.3173 14.4781" stroke="#71717A" stroke-width="1.66667" stroke-linecap="round"/>
</svg>
