<svg width="17" height="16" viewBox="0 0 17 16" fill="none" xmlns="http://www.w3.org/2000/svg">
<path d="M13.5667 14L9.36667 9.8C9.03333 10.0667 8.65 10.2778 8.21667 10.4333C7.78333 10.5889 7.32222 10.6667 6.83333 10.6667C5.62222 10.6667 4.59733 10.2471 3.75867 9.408C2.92 8.56889 2.50044 7.544 2.5 6.33333C2.49956 5.12267 2.91911 4.09778 3.75867 3.25867C4.59822 2.41956 5.62311 2 6.83333 2C8.04356 2 9.06867 2.41956 9.90867 3.25867C10.7487 4.09778 11.168 5.12267 11.1667 6.33333C11.1667 6.82222 11.0889 7.28333 10.9333 7.71667C10.7778 8.15 10.5667 8.53333 10.3 8.86667L14.5 13.0667L13.5667 14ZM6.83333 9.33333C7.66667 9.33333 8.37511 9.04178 8.95867 8.45867C9.54222 7.87556 9.83378 7.16711 9.83333 6.33333C9.83289 5.49956 9.54133 4.79133 8.95867 4.20867C8.376 3.626 7.66756 3.33422 6.83333 3.33333C5.99911 3.33244 5.29089 3.62422 4.70867 4.20867C4.12644 4.79311 3.83467 5.50133 3.83333 6.33333C3.832 7.16533 4.12378 7.87378 4.70867 8.45867C5.29356 9.04356 6.00178 9.33511 6.83333 9.33333Z" fill="#6B7280"/>
</svg>
