<svg width="37" height="36" viewBox="0 0 37 36" fill="none" xmlns="http://www.w3.org/2000/svg">
<path d="M7.424 28.5H29.5775C29.8465 28.5 30.0675 28.4135 30.2405 28.2405C30.4135 28.0675 30.5 27.8465 30.5 27.5775V25.2975C30.5 25.0285 30.4135 24.8075 30.2405 24.6345C30.0675 24.4615 29.846 24.375 29.576 24.375H7.424C7.154 24.375 6.9325 24.4615 6.7595 24.6345C6.5865 24.8075 6.5 25.029 6.5 25.299V27.576C6.5 27.846 6.5865 28.0675 6.7595 28.2405C6.9325 28.4135 7.154 28.5 7.424 28.5ZM13.5095 19.413H15.0095V15.2025C15.0095 14.2505 15.3515 13.4355 16.0355 12.7575C16.7185 12.0795 17.54 11.7405 18.5 11.7405V10.2405C17.12 10.2405 15.943 10.7225 14.969 11.6865C13.996 12.6495 13.5095 13.8215 13.5095 15.2025V19.413ZM10.7405 22.875H26.2595V15.2025C26.2595 13.0505 25.5025 11.2285 23.9885 9.7365C22.4745 8.2445 20.6435 7.499 18.4955 7.5C16.3475 7.501 14.5175 8.2465 13.0055 9.7365C11.4935 11.2265 10.7385 13.0485 10.7405 15.2025V22.875ZM7.424 30C6.757 30 6.1865 29.7625 5.7125 29.2875C5.2385 28.8125 5.001 28.243 5 27.579V25.299C5 24.633 5.2375 24.063 5.7125 23.589C6.1875 23.115 6.7575 22.8775 7.4225 22.8765H9.2405V15.204C9.2405 12.64 10.139 10.465 11.936 8.679C13.733 6.893 15.921 6 18.5 6C21.079 6 23.267 6.893 25.064 8.679C26.861 10.465 27.7595 12.6395 27.7595 15.2025V22.875H29.5775C30.2435 22.875 30.8135 23.1125 31.2875 23.5875C31.7615 24.0625 31.999 24.6325 32 25.2975V27.5775C32 28.2435 31.7625 28.8135 31.2875 29.2875C30.8125 29.7615 30.2425 29.999 29.5775 30H7.424Z" fill="#FF2E2E"/>
</svg>
