<svg width="18" height="17" viewBox="0 0 18 17" fill="none" xmlns="http://www.w3.org/2000/svg">
<path d="M4.9689 13.9508C4.60224 13.9487 4.28924 13.8164 4.02989 13.5539C3.77054 13.2915 3.64173 12.9768 3.64345 12.6097L3.6513 11.2763C3.65242 11.0875 3.71735 10.9296 3.8461 10.8028C3.97485 10.676 4.13344 10.6129 4.32189 10.6136C4.51033 10.6143 4.6684 10.6792 4.79608 10.8084C4.92377 10.9376 4.98661 11.0962 4.98461 11.2842L4.97676 12.6175L12.9766 12.6647L12.9845 11.3313C12.9856 11.1425 13.0505 10.9846 13.1793 10.8578C13.308 10.731 13.4666 10.6679 13.6551 10.6686C13.8435 10.6693 14.0016 10.7342 14.1293 10.8634C14.2569 10.9926 14.3198 11.1512 14.3178 11.3392L14.3099 12.6725C14.3078 13.0392 14.1755 13.3524 13.9131 13.6122C13.6506 13.872 13.3359 14.0006 12.9688 13.998L4.9689 13.9508ZM8.34991 5.8706L7.09256 7.11322C6.95845 7.24576 6.79985 7.30883 6.61677 7.30241C6.4337 7.296 6.27567 7.22551 6.14268 7.09095C6.02124 6.9569 5.95816 6.80097 5.95343 6.62316C5.9487 6.44535 6.01362 6.29018 6.14818 6.15763L8.56228 3.77182C8.62934 3.70555 8.70184 3.65886 8.77978 3.63176C8.85771 3.60467 8.94113 3.59116 9.03002 3.59124C9.11891 3.59132 9.20216 3.60581 9.27977 3.63471C9.35738 3.66361 9.42932 3.71115 9.4956 3.77732L11.8814 6.19142C12.014 6.32554 12.077 6.48147 12.0707 6.65921C12.0643 6.83695 11.9994 6.99213 11.8759 7.12474C11.7418 7.25728 11.5832 7.3259 11.4 7.3306C11.2169 7.3353 11.0588 7.27037 10.9258 7.1358L9.68322 5.87846L9.65513 10.645C9.65402 10.8339 9.58908 10.992 9.46033 11.1192C9.33158 11.2465 9.17298 11.3093 8.98455 11.3078C8.79611 11.3062 8.63826 11.2413 8.51102 11.113C8.38377 10.9847 8.32071 10.8261 8.32182 10.6372L8.34991 5.8706Z" fill="white"/>
</svg>
